<?xml version="1.0" encoding="utf-8"?>
<svg viewBox="0 0 384 512" xmlns="http://www.w3.org/2000/svg">
  <path fill="white" d="M 215.339 500.2 C 266.639 436 383.639 280.4 383.639 193 C 383.639 87 297.639 1 191.639 1 C 85.639 1 -0.361 87 -0.361 193 C -0.361 280.4 116.639 436 167.939 500.2 C 180.239 515.5 203.039 515.5 215.339 500.2 Z M 191.639 129 C 240.907 129 271.699 182.333 247.065 225 C 235.633 244.802 214.504 257 191.639 257 C 142.372 257 111.58 203.667 136.214 161 C 147.646 141.198 168.774 129 191.639 129 Z" style="fill: rgb(255, 255, 255);"/>
  <rect fill="white" x="97.203" y="124.498" width="192.617" height="157.843" style="stroke: rgb(0, 0, 0); fill: rgb(255, 255, 255);"/>
  <path fill="currentColor" d="M 211.131 447.9 C 253.321 395.098 349.546 267.125 349.546 195.246 C 349.546 108.068 278.818 37.337 191.639 37.337 C 104.46 37.337 33.732 108.068 33.732 195.246 C 33.732 267.125 129.96 395.098 172.148 447.9 C 182.263 460.483 201.013 460.483 211.131 447.9 Z M 191.639 142.608 C 232.159 142.608 257.485 186.472 237.223 221.563 C 227.821 237.849 210.445 247.882 191.639 247.882 C 151.118 247.882 125.796 204.017 146.055 168.926 C 155.456 152.642 172.835 142.608 191.639 142.608 Z" style="transform-origin: 191.639px 247.337px;"/>
</svg>